<?xml version="1.0" encoding="iso-8859-1"?>
<!-- Generator: Adobe Illustrator 19.0.0, SVG Export Plug-In . SVG Version: 6.00 Build 0)  -->
<svg version="1.1" id="Layer_1" xmlns="http://www.w3.org/2000/svg" xmlns:xlink="http://www.w3.org/1999/xlink" x="0px" y="0px"
	 viewBox="0 0 512.001 512.001" style="enable-background:new 0 0 512.001 512.001;" xml:space="preserve">
<path style="fill:#D1E7F8;" d="M429.336,135.43l56.042-56.042l-52.766-52.766L376.57,82.664
	c-48.678-25.919-110.827-18.439-151.721,22.454L9.231,320.737c-12.308,12.308-12.308,32.449,0,44.757l137.275,137.275
	c12.308,12.308,32.449,12.308,44.757,0L406.882,287.15C447.776,246.257,455.255,184.108,429.336,135.43z"/>
<path style="fill:#C2DFF6;" d="M367.852,119.463c-0.007-0.01,19.975,10.045,36.51-6.49l57.3-57.3l-29.05-29.05L376.57,82.665
	c-48.678-25.919-110.827-18.439-151.721,22.454L9.231,320.737c-12.308,12.308-12.308,32.449,0,44.757l7.425,7.425
	c1.343-2.323,3.002-4.51,4.984-6.493L237.26,150.808C272.433,115.636,323.326,105.206,367.852,119.463z"/>
<path style="fill:#B9D8F4;" d="M170.766,477.842c8.068-20.31,10.646-41.761,7.454-62.034c-3.327-21.129-12.804-40.016-27.407-54.619
	s-33.49-24.08-54.619-27.407c-20.273-3.192-41.724-0.614-62.034,7.454c-3.249,1.291-5.631,4.129-6.337,7.552
	c-0.706,3.423,0.356,6.973,2.828,9.445l123.118,123.118c2.472,2.472,6.021,3.535,9.445,2.828
	C166.635,483.472,169.474,481.091,170.766,477.842z"/>
<path style="fill:#96C8EF;" d="M148.917,445.109c-3.327-21.129-12.804-40.016-27.407-54.619s-33.49-24.08-54.619-27.407
	c-10.388-1.635-21.086-1.746-31.781-0.389L149.306,476.89C150.663,466.195,150.553,455.497,148.917,445.109z"/>
<path style="fill:#EE8700;" d="M432.099,94.582l-14.68-14.68c-5.273-5.273-5.273-13.902,0-19.175l56.771-56.771
	c5.273-5.273,13.902-5.273,19.175,0l14.68,14.68c5.273,5.273,5.273,13.902,0,19.175l-56.771,56.771
	C446.001,99.855,437.372,99.855,432.099,94.582z"/>
<path style="fill:#FFA733;" d="M390.472,191.907l-57.891-57.891c-7.137-7.137-18.815-7.137-25.952,0L106.767,333.879
	c-7.137,7.137-7.137,18.815,0,25.952l57.89,57.891c7.137,7.137,18.815,7.137,25.952,0L390.472,217.86
	C397.609,210.724,397.609,199.045,390.472,191.907z"/>
<path style="fill:#FFDAAA;" d="M145.16,405.766l-62.521-62.521c-5.273-5.273-5.273-13.902,0-19.175L296.82,109.889
	c5.273-5.273,13.902-5.273,19.175,0l62.521,62.521c5.273,5.273,5.273,13.902,0,19.175L164.334,405.766
	C159.062,411.039,150.433,411.039,145.16,405.766z"/>
<path style="fill:#FFC477;" d="M315.995,109.889c-5.273-5.273-13.902-5.273-19.175,0L82.639,324.069
	c-5.273,5.273-5.273,13.902,0,19.175l42.449,42.449l0,0c-6.155-6.154-6.155-16.225,0-22.379l210.977-210.977
	c6.155-6.154,16.225-6.154,22.378,0L315.995,109.889z"/>
<path style="fill:#CC7400;" d="M444.556,33.591l-27.136,27.136c-5.273,5.273-5.273,13.902,0,19.175l14.68,14.68
	c5.273,5.273,13.902,5.273,19.175,0l27.136-27.136L444.556,33.591z"/>
<path style="fill:#B9D8F4;" d="M499.743,61.808l-49.55-49.55c-6.47-6.47-17.057-6.47-23.526,0l0,0c-6.47,6.47-6.47,17.057,0,23.526
	l49.55,49.55c6.47,6.47,17.057,6.47,23.526,0l0,0C506.212,78.864,506.212,68.278,499.743,61.808z"/>
<path style="fill:#96C8EF;" d="M455.716,41.309L455.716,41.309c6.47-6.47,17.057-6.47,23.526,0l-29.05-29.05
	c-6.47-6.47-17.057-6.47-23.526,0l0,0c-6.47,6.47-6.47,17.057,0,23.526l29.05,29.05C449.247,58.365,449.247,47.778,455.716,41.309z"
	/>
<g>
</g>
<g>
</g>
<g>
</g>
<g>
</g>
<g>
</g>
<g>
</g>
<g>
</g>
<g>
</g>
<g>
</g>
<g>
</g>
<g>
</g>
<g>
</g>
<g>
</g>
<g>
</g>
<g>
</g>
</svg>
