<svg xmlns="http://www.w3.org/2000/svg" width="600" height="600" stroke="null" style="vector-effect:non-scaling-stroke"><g stroke="null"><title stroke="null">background</title><rect id="canvas_background" width="602" height="602" x="-1" y="-1" fill="none" stroke="null"/></g><g stroke="null"><title stroke="null">Layer 1</title><path id="svg_1" fill="#788787" stroke="null" d="m254.4,440.8c0,2.4 -2.4,4.8 -4.8,4.8l0,0c-2.4,0 -4.8,-2.4 -4.8,-4.8l0,-416.8c0,-2.4 2.4,-4.8 4.8,-4.8l0,0c2.4,0 4.8,2.4 4.8,4.8l0,416.8z"/><path id="svg_2" fill="#9E6226" stroke="null" d="m9.6,418.400004c12.696666,75.986828 138.686663,134.643326 292.999992,134.643326s280.303326,-59.989601 292.999992,-134.643326l-585.999985,0z"/><g id="svg_3" stroke="null"><path id="svg_4" fill="#AF7643" stroke="null" d="m20.890323,449.30612c5.787097,10.246742 14.467742,20.493483 24.112904,29.459382l510.22905,0c10.609678,-8.965899 18.325807,-19.21264 24.112904,-29.459382l-558.454858,0z"/><path id="svg_5" fill="#AF7643" stroke="null" d="m442.383886,535.12258c28.935485,-7.685056 54.012905,-17.931798 76.196777,-29.459382l-435.961306,0c21.219356,11.527584 47.261292,21.774326 76.196777,29.459382l283.567752,0z"/><path id="svg_6" fill="#AF7643" stroke="null" d="m599.600021,417.285052c0,3.842528 -2.893548,7.685056 -5.787097,7.685056l-586.425827,0c-3.858065,0 -5.787097,-3.842528 -5.787097,-7.685056l0,0c0,-5.123371 2.893548,-7.685056 5.787097,-7.685056l585.461311,0c3.858065,0 6.751613,2.561685 6.751613,7.685056l0,0z"/></g><circle id="svg_7" cx="249.6" cy="18.4" r="18.4" fill="#788787" stroke="null"/><path style="vector-effect:non-scaling-stroke" id="svg_8" fill="#0C91C4" stroke="null" d="m454.4,371.2c0,-7.2 0.8,-14.4 0.8,-22.4c0,-166.4 -84.8,-302.4 -189.6,-305.6l0,328l188.8,0z"/><path style="vector-effect:non-scaling-stroke" id="svg_9" fill="#22B3E0" stroke="null" d="m454.4,371.2c0,-7.2 0.8,-14.4 0.8,-22.4c0,-166.4 -84.8,-302.4 -189.6,-305.6"/><polygon id="svg_10" fill="#FFAE0B" stroke="null" points="232.8 43.2 144.8 87.2 232.8 130.4"/><polygon id="svg_11" fill="#FF860D" stroke="null" points="232.8 80.8 144.8 87.2 232.8 130.4"/><polygon id="svg_12" fill="#E00E0E" stroke="null" points="231.2 144.8 231.2 363.2 89.6 363.2"/><polygon style="vector-effect:non-scaling-stroke" id="svg_13" fill="#BF1111" stroke="null" points="230.2 197.4 230.2 362.2 88.6 362.2"/></g></svg>